<svg width="184" height="40" viewBox="0 0 184 40" fill="none" xmlns="http://www.w3.org/2000/svg">
<g clip-path="url(#clip0_5017_8272)">
<path d="M157.354 9.06192C155.487 9.06192 154.537 10.321 154.537 12.623V29.3816C154.537 31.6798 155.487 32.9427 157.354 32.9427C159.221 32.9427 160.172 31.6836 160.172 29.3816V12.6192C160.172 10.321 159.184 9.05813 157.354 9.05813V9.06192Z" fill="#6758FF"/>
<path d="M148.936 9.13398C146.96 9.13398 145.935 10.3589 145.935 12.6192V22.779C145.935 25.301 144.509 27.1176 141.913 27.1176C139.316 27.1176 137.89 25.2631 137.89 22.779V12.6192C137.89 10.3589 136.903 9.13398 135.148 9.13398C133.393 9.13398 132.33 10.3589 132.33 12.6192V23.3707C132.33 28.5245 135.66 32.6393 141.733 32.6393C147.806 32.6393 151.499 28.5625 151.499 23.3707V12.6192C151.499 10.3589 150.84 9.13398 148.939 9.13398H148.936Z" fill="#6758FF"/>
<path d="M129.809 20.4278C129.809 13.2146 125.341 8.39446 118.625 8.39446C111.909 8.39446 107.404 13.2146 107.404 20.4278C107.404 27.6409 111.943 32.4611 118.625 32.4611C125.308 32.4611 120.185 32.389 120.911 32.2752L122.325 34.1525C123.598 35.8097 124.941 36.1397 126.572 34.8161C128.207 33.5267 128.387 32.0553 126.973 30.5838L126.172 29.7002C128.458 27.603 129.801 24.3643 129.801 20.424L129.809 20.4278ZM118.588 27.0796C115.288 27.0796 113.054 24.4212 113.054 20.3936C113.054 16.3661 115.288 13.8859 118.588 13.8859C121.888 13.8859 124.155 16.4381 124.155 20.3936C124.155 24.3491 121.884 27.0796 118.588 27.0796Z" fill="#6758FF"/>
<path d="M34.0351 16.6126C34.7086 13.7683 34.4841 11.1136 33.1745 9.02779C31.4534 6.22141 28.1234 4.96992 24.1947 5.15954C21.2389 2.01185 17.6469 0.570734 14.2421 1.55676C11.4733 2.39109 9.26577 4.74238 7.88138 7.96592C4.55137 9.21741 2.08192 11.4549 1.14652 14.4889C0.360784 17.0298 0.772359 19.7224 2.11933 22.2633C1.03427 25.5627 1.1091 28.7104 2.60574 31.1375C4.51395 34.2093 8.25554 35.4229 12.6706 34.9299C15.6265 38.0397 19.181 39.4429 22.5484 38.4189C25.3172 37.5846 27.5247 35.2333 28.9091 32.0098C32.2391 30.7583 34.7086 28.5207 35.6066 25.5247C36.5046 22.6046 35.9059 19.4569 34.0351 16.6126Z" fill="#6758FF"/>
<path fill-rule="evenodd" clip-rule="evenodd" d="M86.1555 9.35394C85.467 9.35394 84.8048 9.63837 84.3184 10.1541C83.8282 10.6737 83.5551 11.3639 83.5551 12.0921V30.1629C83.5551 31.676 84.7187 32.901 86.1555 32.901C87.5923 32.901 88.7559 31.676 88.7559 30.1629V25.7826H94.0951C95.4646 25.8395 97.2531 25.3844 98.7497 24.1216C100.392 22.7373 101.507 20.5605 101.507 17.5683C101.507 14.5761 100.381 12.4182 98.7235 11.0605C97.1894 9.80144 95.4346 9.4222 94.3009 9.35773C94.2523 9.35394 94.2074 9.35394 94.1587 9.35394H86.1555ZM94.155 20.3026H88.7559V14.8226H94.0689C94.5142 14.8567 95.0979 15.0236 95.5244 15.3763C95.8462 15.6417 96.3027 16.1537 96.3027 17.5645C96.3027 18.9753 95.835 19.5593 95.4982 19.8437C95.0455 20.2192 94.4992 20.3216 94.2972 20.3102C94.2486 20.3102 94.2036 20.3102 94.155 20.3102V20.3026Z" fill="#6758FF"/>
<path d="M46.3637 9.64975C44.9157 9.64975 43.7445 10.8595 43.7445 12.3499C43.7445 13.8404 44.9157 15.0501 46.3637 15.0501H53.8693L44.2497 28.5283C43.666 29.3475 43.5762 30.4397 44.0252 31.3461C44.4742 32.2563 45.3759 32.8289 46.3637 32.8289H59.0476C60.4956 32.8289 61.6668 31.6229 61.6668 30.1287C61.6668 28.6345 60.4956 27.4285 59.0476 27.4285H51.542L61.1617 13.9503C61.7453 13.1312 61.8351 12.039 61.3861 11.1326C60.9372 10.2224 60.0354 9.64975 59.0476 9.64975H46.3637Z" fill="#6758FF"/>
<path d="M165.444 9.64975C163.996 9.64975 162.824 10.8595 162.824 12.3499C162.824 13.8404 163.996 15.0501 165.444 15.0501H172.949L163.33 28.5283C162.746 29.3475 162.656 30.4397 163.105 31.3461C163.554 32.2563 164.456 32.8289 165.444 32.8289H178.128C179.576 32.8289 180.747 31.6229 180.747 30.1287C180.747 28.6345 179.576 27.4285 178.128 27.4285H170.622L180.242 13.9503C180.825 13.1312 180.915 12.039 180.466 11.1326C180.017 10.2224 179.115 9.64975 178.128 9.64975H165.444Z" fill="#6758FF"/>
<path d="M66.991 9.57769C65.5318 9.57769 64.1923 10.8026 64.1923 12.3158V30.0339C64.1923 31.5471 65.3709 32.772 66.8302 32.772H78.1709C79.6301 32.772 80.8087 31.5471 80.8087 30.0339C80.8087 28.5207 79.6301 27.2958 78.1709 27.2958H69.468V23.9395H77.5573C78.9903 23.9395 80.154 22.7032 80.154 21.1749C80.154 19.6465 78.9941 18.4102 77.5573 18.4102H69.468V15.0539H78.3318C79.791 15.0539 80.9696 13.829 80.9696 12.3158C80.9696 10.8026 79.791 9.57769 78.3318 9.57769H66.991Z" fill="#6758FF"/>
<path d="M22.0358 29.7609C21.381 29.7609 20.7861 29.4044 20.2249 28.6686L19.615 27.8609C19.3157 27.8609 18.9228 27.8609 18.4252 27.8609C14.0962 27.8609 11.189 24.7549 11.189 20.1319C11.189 15.509 14.0962 12.403 18.4252 12.403C22.7542 12.403 25.639 15.509 25.639 20.1319C25.639 22.3657 24.943 24.3188 23.6709 25.6992L23.8056 25.8509C24.307 26.3742 24.5502 26.9355 24.509 27.512C24.4679 28.1112 24.1311 28.6649 23.5025 29.1617C23.0124 29.5599 22.5185 29.7609 22.0396 29.7609H22.0358ZM18.399 16.2561C16.3711 16.2561 15.1101 17.7503 15.1101 20.1585C15.1101 22.5667 16.401 24.186 18.399 24.186C20.397 24.186 21.714 22.5667 21.714 20.1585C21.714 17.7503 20.412 16.2561 18.399 16.2561Z" fill="white"/>
</g>
<defs>
<clipPath id="clip0_5017_8272">
<rect width="182.5" height="40" fill="white" transform="translate(0.75)"/>
</clipPath>
</defs>
</svg>
